<?xml version="1.0" encoding="UTF-8" standalone="no"?>
<svg
   version="1.1"
   id="Ebene_2"
   x="0px"
   y="0px"
   viewBox="0 0 1398.468 280.708"
   xml:space="preserve"
   sodipodi:docname="bfw-logo-color.svg"
   inkscape:version="1.3 (0e150ed6c4, 2023-07-21)"
   width="1398.468"
   height="280.70801"
   xmlns:inkscape="http://www.inkscape.org/namespaces/inkscape"
   xmlns:sodipodi="http://sodipodi.sourceforge.net/DTD/sodipodi-0.dtd"
   xmlns="http://www.w3.org/2000/svg"
   xmlns:svg="http://www.w3.org/2000/svg"><defs
   id="defs1" /><sodipodi:namedview
   id="namedview1"
   pagecolor="#ffffff"
   bordercolor="#000000"
   borderopacity="0.25"
   inkscape:showpageshadow="2"
   inkscape:pageopacity="0.0"
   inkscape:pagecheckerboard="0"
   inkscape:deskcolor="#d1d1d1"
   inkscape:zoom="0.97748144"
   inkscape:cx="391.8233"
   inkscape:cy="127.36815"
   inkscape:window-width="1920"
   inkscape:window-height="1057"
   inkscape:window-x="-8"
   inkscape:window-y="-8"
   inkscape:window-maximized="1"
   inkscape:current-layer="Ebene_2" /> <path
   style="fill:#000000;stroke:#000000;stroke-width:0.588173"
   d="m 114.49273,131.48398 c 7.24746,-5.69822 13.49739,-15.94183 13.49739,-27.72293 0,-26.714216 -18.7086,-42.660166 -50.049387,-42.660166 H 1.3171237 v 89.998656 59.39074 14.67961 H 19.545183 80.15638 c 21.95708,0 38.96115,-6.06582 49.71765,-17.07524 7.20512,-7.3751 11.59347,-16.97407 12.77982,-28.46697 0.21645,-2.09977 0.34879,-4.24955 0.34879,-6.47343 -5.9e-4,-19.25854 -11.48702,-35.69855 -28.50991,-41.67027 z M 34.480653,90.317194 h 40.75625 c 11.841681,0 18.362752,5.6494 18.362752,15.909476 0,9.63368 -6.245218,15.1625 -17.133471,15.1625 H 34.480653 Z M 78.187178,195.953 H 34.480653 v -45.58691 h 46.41506 c 17.614008,0 27.715877,8.49027 27.715877,23.28635 0,19.40205 -19.060916,22.30056 -30.424412,22.30056 z M 439.54166,61.217934 406.00229,120.74983 387.87834,87.646884 v 0 c 8.93493,-16.29767 26.0437,-26.42895 44.62996,-26.42895 z M 277.69771,153.55575 h -91.74729 v 16.063 34.28694 21.26303 H 152.79395 V 206.59599 177.0856 127.26208 61.099124 h 91.52673 l 10.5477,29.2163 h -68.91796 v 34.272236 h 81.28782 z M 489.8469,61.217344 465.17247,129.5736 l -5.01829,13.90205 -4.8242,13.36387 -6.34638,17.58166 c -5.86055,16.22474 -8.84494,33.37468 -8.84494,50.63108 h -48.02959 c 0,-17.09465 -4.39483,-33.91757 -12.80629,-48.84127 l -0.36819,-0.64876 -1.91157,-3.36787 -2.22388,4.01663 c -0.0435,0.0776 -0.08,0.15821 -0.12351,0.23644 -8.32618,14.86548 -12.68277,31.59899 -12.68277,48.60483 h -48.02665 c 0,-12.35574 -1.5569,-24.65032 -4.57775,-36.59552 -1.19811,-4.73832 -2.60443,-9.42723 -4.26955,-14.03556 l -8.16148,-22.57936 -11.28704,-31.22845 -21.4683,-59.396026 h 34.51339 l 19.69261,58.942546 9.48899,28.40169 10.05363,30.09209 17.74752,-32.38361 3.31024,-6.03995 -11.24292,-19.96258 -33.25646,-59.050186 h 37.1731 l 25.34083,46.236846 7.60155,13.85205 10.41595,18.97975 2.04037,3.71784 13.43386,24.48033 5.58059,10.16951 4.18837,-12.53455 4.00781,-11.99519 v -0.0535 l 3.61021,-10.79885 6.11346,-18.28688 21.31774,-63.767326 z m 35.86089,-0.1241 h 13.3274 c 4.7195,0 8.55909,2.208 8.55909,7.23864 0,2.24917 -1.4122,4.32424 -3.00027,5.11828 3.26613,0.70581 5.69352,3.61844 5.69352,7.32451 0,5.86938 -4.45718,8.91494 -10.85532,8.91494 h -13.72442 z m 13.06096,10.81238 c 2.20624,0 3.48728,-1.19105 3.48728,-3.1332 0,-1.94038 -1.23634,-3.26436 -3.70843,-3.26436 h -7.71977 v 6.39756 z m 0.31114,13.3721 c 3.57315,0 5.86938,-1.4569 5.86938,-4.41423 0,-3.00027 -2.11977,-4.58834 -5.38649,-4.58834 h -8.73495 v 9.00257 z m 17.00937,-6.97278 v -17.2117 h 5.12063 v 16.94584 c 0,4.72362 2.64854,7.41451 7.06043,7.41451 4.41188,0 7.01572,-2.69148 7.01572,-7.41451 v -16.94584 h 5.12063 v 17.2117 c 0,7.3698 -4.76478,11.82697 -12.13635,11.82697 -7.36804,0 -12.18106,-4.45717 -12.18106,-11.82697 z m 31.78191,-17.2117 h 5.20651 l 10.23714,14.03321 c 2.03038,2.78147 4.3713,6.75163 4.3713,6.75163 v -20.78484 h 5.11652 v 28.59637 h -5.29297 L 597.756,76.362204 c -2.47209,-3.39728 -4.76478,-7.28158 -4.76478,-7.28158 v 20.60899 h -5.12064 v -28.59637 z m 32.663,0 h 11.20704 c 9.31195,0 15.18133,6.48754 15.18133,14.29906 0,7.80976 -5.86938,14.29731 -15.18133,14.29731 h -11.20704 z m 10.98589,24.18448 c 6.04582,0 10.06481,-4.19308 10.06481,-9.88483 0,-5.69351 -4.01899,-9.88483 -10.06481,-9.88483 h -5.86585 v 19.76966 z m 21.69886,-24.18448 h 22.19705 v 4.41423 h -17.07641 v 6.97279 h 16.10652 v 4.36777 h -16.10652 v 8.42969 h 17.69458 v 4.41247 h -22.81522 z m 27.25004,24.93323 1.98509,-3.88253 c 2.3374,1.89744 5.2065,3.35435 9.48781,3.35435 3.08673,0 6.1764,-1.45691 6.1764,-4.06016 0,-2.60325 -2.95556,-3.39905 -5.86937,-4.10368 -5.25121,-1.23634 -10.67887,-2.9144 -10.67887,-8.60555 0,-5.33944 5.07535,-8.07562 10.37184,-8.07562 4.10133,0 7.28158,1.14812 10.14716,3.0885 l -1.98509,3.92723 c -2.55855,-1.631 -5.2065,-2.3821 -8.16207,-2.3821 -1.89921,0 -5.16533,0.79403 -5.16533,3.39728 0,2.29447 2.56208,3.04497 6.00407,3.8843 5.42765,1.27927 10.67886,3.30906 10.67886,8.86964 0,6.00054 -5.91467,8.69378 -11.56289,8.69378 -6.2211,0 -9.53192,-2.33916 -11.42761,-4.10544 z M 525.70779,105.97081 h 21.0507 v 4.41424 h -15.93066 v 6.97279 h 13.45857 v 4.36777 h -13.45857 v 12.84216 h -5.12063 v -28.59696 z m 24.03626,14.29907 c 0,-8.16384 6.40168,-14.73961 15.05017,-14.73961 8.64849,0 15.04663,6.57577 15.04663,14.73961 0,8.20677 -6.39755,14.73961 -15.04663,14.73961 -8.64908,0 -15.05017,-6.53284 -15.05017,-14.73961 z m 24.75913,0 c 0,-5.51765 -4.15014,-10.10598 -9.66367,-10.10598 -5.60705,0 -9.75367,4.58833 -9.75367,10.10598 0,5.5153 4.14662,10.10598 9.75367,10.10598 5.51294,0 9.66367,-4.5901 9.66367,-10.10598 z m 11.65641,-14.29907 h 12.09107 c 8.20677,0 12.57807,4.89948 12.57807,10.94472 0,3.83959 -2.07507,7.45744 -5.86938,9.26666 l 6.30757,8.38499 h -5.95525 l -4.98535,-6.97278 c -0.79404,0.13292 -1.67806,0.22115 -2.56208,0.22115 h -6.48402 v 6.75163 h -5.12063 z m 12.31222,17.43227 c 4.10544,0 6.97102,-2.91205 6.97102,-6.48755 0,-3.66314 -2.86558,-6.57577 -6.92573,-6.57577 h -7.23688 v 13.06332 z m 16.81821,7.50096 1.98508,-3.88252 c 2.3374,1.89744 5.20651,3.35434 9.48782,3.35434 3.08673,0 6.1764,-1.4569 6.1764,-4.06015 0,-2.60325 -2.95557,-3.39905 -5.86938,-4.10368 -5.2512,-1.23634 -10.67886,-2.9144 -10.67886,-8.60556 0,-5.33943 5.07534,-8.07561 10.37184,-8.07561 4.10132,0 7.28157,1.14811 10.14715,3.0885 l -1.98508,3.92723 c -2.55855,-1.63101 -5.20651,-2.3821 -8.16207,-2.3821 -1.89921,0 -5.16534,0.79403 -5.16534,3.39728 0,2.29446 2.56208,3.04497 6.00407,3.88429 5.42766,1.27928 10.67886,3.30906 10.67886,8.86965 0,6.00054 -5.91466,8.69378 -11.56288,8.69378 -6.22111,0 -9.53252,-2.33916 -11.42761,-4.10545 z m 27.64706,-10.67886 c 0,-8.11855 6.40167,-14.69432 15.05016,-14.69432 3.70431,0 7.10571,1.23634 9.61898,3.35435 l -2.95557,3.44258 c -1.94391,-1.5022 -4.06016,-2.1633 -6.31168,-2.1633 -5.91467,0 -10.0607,4.58833 -10.0607,10.06069 0,5.5153 4.14662,10.15068 9.75367,10.15068 2.77912,0 5.33767,-1.01518 7.19159,-2.8244 l 3.13143,3.53021 c -2.64795,2.42739 -6.26639,3.92723 -10.36831,3.92723 -8.6479,5.9e-4 -15.04957,-6.57518 -15.04957,-14.78372 z m 30.21266,-14.25437 h 5.12064 v 11.42996 h 13.94145 v -11.42996 h 5.12063 v 28.59637 h -5.12063 v -12.79746 h -13.94145 v 12.79746 h -5.12064 z m 31.64781,17.2117 v -17.2117 h 5.12063 v 16.94585 c 0,4.72361 2.64796,7.4145 7.06043,7.4145 4.41247,0 7.01572,-2.69147 7.01572,-7.4145 v -16.94585 h 5.12063 v 17.2117 c 0,7.36981 -4.76478,11.82698 -12.13635,11.82698 -7.36804,0 -12.18106,-4.45776 -12.18106,-11.82698 z m 31.78191,-17.2117 h 5.20651 l 10.23714,14.03322 c 2.03038,2.78147 4.3713,6.75163 4.3713,6.75163 v -20.78485 h 5.11652 v 28.59637 h -5.29297 l -9.75367,-13.3274 c -2.47209,-3.39729 -4.76478,-7.28158 -4.76478,-7.28158 v 20.60898 h -5.12063 v -28.59637 z m 31.22433,14.29907 c 0,-8.16384 6.40167,-14.73961 15.05016,-14.73961 3.83959,0 7.19159,1.32398 9.79484,3.44258 l -3.04497,3.48551 c -1.94038,-1.63336 -4.14662,-2.29446 -6.70458,-2.29446 -5.60705,0 -9.75367,4.58833 -9.75367,10.10598 0,5.5153 4.14662,10.10598 9.75367,10.10598 3.00027,0 5.64881,-1.36926 7.36804,-3.48727 v -4.94242 h -5.25121 v -4.27954 h 10.19598 v 11.1641 c -2.56208,3.8396 -7.19571,6.17876 -12.35692,6.17876 -8.64967,0 -15.05134,-6.53284 -15.05134,-14.73961 z m 32.47537,10.63416 1.98508,-3.88252 c 2.3374,1.89744 5.2065,3.35434 9.48781,3.35434 3.08673,0 6.1764,-1.4569 6.1764,-4.06015 0,-2.60325 -2.95556,-3.39905 -5.86937,-4.10368 -5.25121,-1.23634 -10.67887,-2.9144 -10.67887,-8.60556 0,-5.33943 5.07535,-8.07561 10.37184,-8.07561 4.10133,0 7.28158,1.14811 10.14716,3.0885 l -1.98509,3.92723 c -2.55855,-1.63101 -5.2065,-2.3821 -8.16207,-2.3821 -1.89921,0 -5.16533,0.79403 -5.16533,3.39728 0,2.29446 2.56208,3.04497 6.00407,3.88429 5.42765,1.27928 10.67886,3.30906 10.67886,8.86965 0,6.00054 -5.91466,8.69378 -11.56289,8.69378 -6.2211,0 -9.53192,-2.33916 -11.4276,-4.10545 z m -276.20473,44.65231 14.21143,-17.25287 c 1.62924,-2.03037 2.73442,-3.04497 2.73442,-3.04497 h -16.19652 v -4.41247 h 22.54937 v 3.92899 l -13.7203,16.6794 c -1.76805,2.11625 -3.13497,3.57315 -3.13497,3.57315 h 17.29758 v 4.41247 h -23.74042 v -3.8837 z m 29.59097,-24.71031 h 22.19705 v 4.41247 h -17.07642 v 6.97455 h 16.10652 v 4.36777 h -16.10652 v 8.42793 h 17.69459 v 4.41247 H 553.6654 Z m 28.83105,0 h 5.20651 l 10.23714,14.03145 c 2.03037,2.78323 4.3713,6.7534 4.3713,6.7534 v -20.78485 h 5.11651 v 28.5946 h -5.29237 l -9.75367,-13.3274 c -2.47209,-3.39729 -4.76479,-7.28158 -4.76479,-7.28158 v 20.60898 h -5.12063 z m 39.96634,4.41247 h -10.0607 v -4.41247 h 25.24261 v 4.41247 h -10.06069 v 24.18213 h -5.12064 v -24.18213 z m 20.15609,-4.41247 h 12.09106 c 8.20678,0 12.57807,4.89948 12.57807,10.94472 0,3.83959 -2.07507,7.45744 -5.86937,9.26666 l 6.30756,8.38263 h -5.95583 l -4.98536,-6.97102 c -0.79403,0.13116 -1.67805,0.22115 -2.56208,0.22115 h -6.48401 v 6.74987 h -5.12063 v -28.59401 z m 12.31163,17.43285 c 4.10544,0 6.97102,-2.9144 6.97102,-6.48755 0,-3.66313 -2.86558,-6.57753 -6.92573,-6.57753 h -7.23688 v 13.06508 z m 18.2157,-0.22115 v -17.2117 h 5.12064 v 16.94584 c 0,4.72362 2.64795,7.41274 7.06042,7.41274 4.41247,0 7.01573,-2.68971 7.01573,-7.41274 v -16.94584 h 5.12063 v 17.2117 c 0,7.36804 -4.76479,11.82521 -12.13636,11.82521 -7.36804,0 -12.18106,-4.45717 -12.18106,-11.82521 z m 31.78603,-17.2117 h 4.45718 l 3.97016,5.55882 c 2.03037,2.8244 6.48755,9.18079 6.48755,9.18079 0,0 4.45717,-6.31168 6.44284,-9.1355 l 3.97017,-5.60352 h 4.45717 v 28.5946 h -5.11652 v -19.85612 c 0,0 -0.88402,1.58807 -2.73794,4.27778 l -7.01572,10.06481 -7.10572,-10.15068 c -1.76452,-2.55856 -2.68971,-4.19132 -2.68971,-4.19132 v 19.85612 h -5.12063 v -28.59578 z m -179.22445,44.87758 h 21.0507 v 4.41247 h -15.93066 v 6.97455 h 13.45857 v 4.36777 h -13.45857 v 12.8404 h -5.12063 v -28.59519 z m 25.66139,17.21169 v -17.21169 h 5.12063 v 16.94584 c 0,4.72361 2.64795,7.41274 7.06042,7.41274 4.41247,0 7.01573,-2.68971 7.01573,-7.41274 v -16.94584 h 5.12063 v 17.21169 c 0,7.36804 -4.76479,11.82522 -12.13636,11.82522 -7.36745,0 -12.18105,-4.45777 -12.18105,-11.82522 z m 5.86996,-21.493 c 0,-1.36692 1.10518,-2.47209 2.47209,-2.47209 1.36691,0 2.47209,1.10517 2.47209,2.47209 0,1.36691 -1.10518,2.47209 -2.47209,2.47209 -1.36691,0 -2.47209,-1.10518 -2.47209,-2.47209 z m 7.85446,0 c 0,-1.36692 1.10517,-2.47209 2.47209,-2.47209 1.36691,0 2.47209,1.10517 2.47209,2.47209 0,1.36691 -1.10518,2.47209 -2.47209,2.47209 -1.36692,0 -2.47209,-1.10518 -2.47209,-2.47209 z m 18.05807,4.28131 h 12.09107 c 8.20677,0 12.57807,4.89947 12.57807,10.94471 0,3.83959 -2.07507,7.45744 -5.86937,9.26666 l 6.30756,8.38264 h -5.95583 l -4.98536,-6.97102 c -0.79403,0.13116 -1.67805,0.22115 -2.56208,0.22115 h -6.48342 v 6.74987 h -5.12064 z m 12.31222,17.43226 c 4.10545,0 6.97103,-2.9144 6.97103,-6.48755 0,-3.66314 -2.86558,-6.57753 -6.92574,-6.57753 h -7.23687 v 13.06508 z m 26.14899,-17.43226 h 5.11651 l 5.42766,17.25287 c 0.70816,2.25093 1.32574,4.76831 1.32574,4.76831 0,0 0.61817,-2.47209 1.19105,-4.76831 l 4.50246,-17.25287 h 5.46883 l 4.50246,17.25287 c 0.61817,2.29622 1.14635,4.76831 1.14635,4.76831 0,0 0.66287,-2.47209 1.37103,-4.76831 l 5.42766,-17.25287 h 5.11651 l -9.13197,28.68459 h -5.42765 l -4.59246,-16.59353 c -0.65934,-2.47209 -1.14634,-5.64881 -1.14634,-5.64881 0,0 -0.48701,3.17613 -1.14635,5.64881 l -4.59246,16.59353 h -5.46883 z m 53.41725,0 h 4.85419 l 12.8851,28.5946 h -5.2065 l -2.25094,-4.94065 h -15.70951 l -2.25152,4.94065 h -5.20651 z m 8.51439,19.59379 -3.26259,-7.41274 c -1.23634,-2.8244 -2.82441,-6.66341 -2.82441,-6.66341 0,0 -1.54689,3.79431 -2.8244,6.66341 l -3.26613,7.41274 z m 13.94852,-19.59379 h 5.12063 v 24.18213 h 17.1217 v 4.41247 h -22.24175 v -28.5946 z m 27.50119,0 h 11.20704 c 9.31195,0 15.18132,6.48754 15.18132,14.2973 0,7.80975 -5.86937,14.2973 -15.18132,14.2973 h -11.20704 z m 10.98647,24.18213 c 6.04583,0 10.06482,-4.19132 10.06482,-9.88483 0,-5.69351 -4.01899,-9.88483 -10.06482,-9.88483 h -5.86584 v 19.76966 z"
   id="path1" /> </svg>
