<?xml version="1.0" encoding="UTF-8"?>
<svg id="Ebene_1" xmlns="http://www.w3.org/2000/svg" version="1.1" viewBox="0 0 447.02 141.16">
  <!-- Generator: Adobe Illustrator 29.3.1, SVG Export Plug-In . SVG Version: 2.1.0 Build 151)  -->
  <defs>
    <style>
      .st0 {
        fill: #e6320f;
      }
    </style>
  </defs>
  <g>
    <path d="M418.12,114.73h2.16v6.07c0,2.45,1.75,3.48,3.34,3.48.65,0,1.34-.14,2.3-.67l-.74-1.66s-.65.46-1.27.46c-1.08,0-1.61-.62-1.61-1.7v-5.98h3.46v-1.82h-3.46v-3.38h-2.02v3.38h-2.16v1.82ZM408.47,114.73h2.3v9.26h2.02v-9.26h2.88v-1.82h-2.88v-3.7c0-1.08.6-1.78,1.68-1.78.62,0,1.3.43,1.3.43l.74-1.66c-.96-.53-1.68-.65-2.33-.65-1.58,0-3.41,1.18-3.41,3.53v3.82h-2.3v1.82ZM399.95,122.5c-1.25,0-2.54-.58-2.54-2.02,0-1.15,1.08-2.02,2.81-2.02s2.9.79,2.9.79v1.56s-1.2,1.68-3.17,1.68M400.31,112.61c-2.42,0-4.15,1.13-4.15,1.13l.84,1.68s1.63-.94,3.31-.94c.89,0,2.81.31,2.81,2.62v.6s-1.3-.91-3.34-.91c-2.5,0-4.39,1.54-4.39,3.7,0,2.4,2.14,3.79,4.13,3.79,2.52,0,3.77-1.9,3.77-1.9v1.61h1.85v-7.3c0-2.06-1.56-4.08-4.82-4.08M387.35,112.61c-1.92,0-2.93,1.15-3.26,1.63v-8.4h-2.02v18.14h2.02v-7.63s.96-1.87,2.76-1.87c1.49,0,2.66.82,2.66,2.71v6.79h2.02v-7.13c0-2.74-1.97-4.25-4.18-4.25M377.06,120.82s-1.08,1.58-3.24,1.58-3.7-1.78-3.7-3.96,1.46-3.96,3.7-3.96c1.97,0,3.05,1.34,3.05,1.34l1.37-1.22s-1.58-1.99-4.42-1.99c-3.26,0-5.71,2.59-5.71,5.83s2.45,5.83,5.71,5.83c2.93,0,4.54-2.14,4.54-2.14l-1.3-1.32ZM355.91,121.95s1.63,2.33,4.75,2.33c2.14,0,4.39-1.1,4.39-3.24,0-2.26-1.8-3.05-3.91-3.5-1.82-.38-2.69-.84-2.69-1.68,0-.72.7-1.42,2.11-1.42,1.68,0,2.78,1.22,2.78,1.22l1.32-1.37s-1.49-1.68-4.1-1.68c-2.47,0-4.08,1.58-4.08,3.19,0,2.09,1.68,3.02,4.06,3.5,1.7.34,2.52.82,2.52,1.78,0,.89-1.27,1.37-2.4,1.37-2.18,0-3.36-1.8-3.36-1.8l-1.39,1.3ZM345.33,114.73h2.16v6.07c0,2.45,1.75,3.48,3.34,3.48.65,0,1.34-.14,2.3-.67l-.74-1.66s-.65.46-1.27.46c-1.08,0-1.61-.62-1.61-1.7v-5.98h3.46v-1.82h-3.46v-3.38h-2.02v3.38h-2.16v1.82ZM341.78,112.61c-2.11,0-3.1,1.99-3.1,1.99v-1.7h-1.87v11.09h2.02v-7.63s.79-1.87,2.54-1.87c.84,0,1.27.24,1.27.24l.74-1.82s-.7-.29-1.61-.29M329.68,109.35c0,.74.62,1.37,1.37,1.37s1.37-.62,1.37-1.37-.62-1.37-1.37-1.37-1.37.62-1.37,1.37M330.04,123.99h2.02v-11.09h-2.02v11.09ZM309.21,112.9l5.06,11.57,3.65-8.33,3.65,8.33,5.06-11.57h-2.06l-2.95,7.18-2.95-7.18h-1.37l-2.93,7.18-2.98-7.18h-2.18ZM306.04,112.61c-2.11,0-3.1,1.99-3.1,1.99v-1.7h-1.87v11.09h2.02v-7.63s.79-1.87,2.54-1.87c.84,0,1.27.24,1.27.24l.74-1.82s-.7-.29-1.61-.29M288.52,117.49c.14-1.15,1.13-3,3.53-3,2.23,0,3.36,1.75,3.43,3h-6.96ZM292.05,112.61c-3.34,0-5.54,2.59-5.54,5.83s2.42,5.83,5.78,5.83c2.93,0,4.61-2.18,4.61-2.18l-1.27-1.32s-1.15,1.63-3.34,1.63-3.7-1.56-3.82-3.24h8.95c.02-.26.02-.43.02-.65,0-3.58-2.3-5.9-5.4-5.9M274.31,121.95s1.63,2.33,4.75,2.33c2.14,0,4.39-1.1,4.39-3.24,0-2.26-1.8-3.05-3.91-3.5-1.82-.38-2.69-.84-2.69-1.68,0-.72.7-1.42,2.11-1.42,1.68,0,2.78,1.22,2.78,1.22l1.32-1.37s-1.49-1.68-4.1-1.68c-2.47,0-4.08,1.58-4.08,3.19,0,2.09,1.68,3.02,4.06,3.5,1.7.34,2.52.82,2.52,1.78,0,.89-1.27,1.37-2.4,1.37-2.18,0-3.36-1.8-3.36-1.8l-1.39,1.3ZM262.07,121.95s1.63,2.33,4.75,2.33c2.14,0,4.39-1.1,4.39-3.24,0-2.26-1.8-3.05-3.91-3.5-1.82-.38-2.69-.84-2.69-1.68,0-.72.7-1.42,2.11-1.42,1.68,0,2.78,1.22,2.78,1.22l1.32-1.37s-1.49-1.68-4.1-1.68c-2.47,0-4.08,1.58-4.08,3.19,0,2.09,1.68,3.02,4.06,3.5,1.7.34,2.52.82,2.52,1.78,0,.89-1.27,1.37-2.4,1.37-2.18,0-3.36-1.8-3.36-1.8l-1.39,1.3ZM253.22,122.5c-1.25,0-2.54-.58-2.54-2.02,0-1.15,1.08-2.02,2.81-2.02s2.9.79,2.9.79v1.56s-1.2,1.68-3.17,1.68M253.58,112.61c-2.42,0-4.15,1.13-4.15,1.13l.84,1.68s1.63-.94,3.31-.94c.89,0,2.81.31,2.81,2.62v.6s-1.3-.91-3.34-.91c-2.5,0-4.39,1.54-4.39,3.7,0,2.4,2.14,3.79,4.13,3.79,2.52,0,3.77-1.9,3.77-1.9v1.61h1.85v-7.3c0-2.06-1.56-4.08-4.82-4.08M247.63,107.19h-2.14l-4.3,11.64-4.08-11.64h-1.46l-4.13,11.64-4.25-11.64h-2.26l6.46,17.28,4.85-13.22,4.82,13.22,6.48-17.28ZM211.58,120.49s-1.06,1.92-3.26,1.92-3.67-1.78-3.67-3.96,1.46-3.96,3.67-3.96,3.26,1.92,3.26,1.92v4.08ZM208,112.61c-3,0-5.38,2.57-5.38,5.83s2.38,5.83,5.38,5.83c2.66,0,3.74-1.9,3.74-1.9v1.61h1.85v-18.14h-2.02v8.42s-1.13-1.66-3.58-1.66M194.83,112.61c-2.4,0-3.41,1.85-3.41,1.85v-1.56h-1.87v11.09h2.02v-7.63s.96-1.87,2.76-1.87c1.49,0,2.66.82,2.66,2.71v6.79h2.02v-7.13c0-2.74-1.97-4.25-4.18-4.25M179.87,124.28c2.4,0,3.41-1.99,3.41-1.99v1.7h1.87v-11.09h-2.02v7.68s-.89,1.82-2.76,1.82c-1.49,0-2.66-.82-2.66-2.71v-6.79h-2.02v7.13c0,2.74,1.97,4.25,4.18,4.25M159.09,112.61c-2.4,0-3.41,1.85-3.41,1.85v-1.56h-1.87v11.09h2.02v-7.63s.96-1.87,2.76-1.87c1.49,0,2.66.82,2.66,2.71v6.79h2.02v-7.13c0-2.74-1.97-4.25-4.18-4.25M141.26,117.49c.14-1.15,1.13-3,3.53-3,2.23,0,3.36,1.75,3.43,3h-6.96ZM144.79,112.61c-3.34,0-5.54,2.59-5.54,5.83s2.42,5.83,5.78,5.83c2.93,0,4.61-2.18,4.61-2.18l-1.27-1.32s-1.15,1.63-3.34,1.63-3.7-1.56-3.82-3.24h8.95c.02-.26.02-.43.02-.65,0-3.58-2.3-5.9-5.4-5.9M131.44,112.61c-2.4,0-3.41,1.85-3.41,1.85v-1.56h-1.87v11.09h2.02v-7.63s.96-1.87,2.76-1.87c1.49,0,2.66.82,2.66,2.71v6.79h2.02v-7.13c0-2.74-1.97-4.25-4.18-4.25M116.83,122.41c-2.23,0-3.7-1.78-3.7-3.96s1.46-3.96,3.7-3.96,3.7,1.78,3.7,3.96-1.46,3.96-3.7,3.96M116.83,112.61c-3.26,0-5.71,2.57-5.71,5.83s2.45,5.83,5.71,5.83,5.71-2.57,5.71-5.83-2.45-5.83-5.71-5.83M104.76,109.35c0,.74.62,1.37,1.37,1.37s1.37-.62,1.37-1.37-.62-1.37-1.37-1.37-1.37.62-1.37,1.37M105.12,123.99h2.02v-11.09h-2.02v11.09ZM98.35,120.53s-1.06,1.87-3.26,1.87-3.67-1.78-3.67-3.96,1.42-3.96,3.67-3.96,3.26,1.87,3.26,1.87v4.18ZM98.35,124.13c0,2.5-1.46,3.79-3.82,3.79s-3.62-1.75-3.62-1.75l-1.22,1.51s1.8,2.11,4.85,2.11c3.22,0,5.83-1.92,5.83-5.76v-11.14h-1.85v1.61s-1.08-1.9-3.74-1.9c-3,0-5.38,2.57-5.38,5.83s2.38,5.83,5.38,5.83c2.04,0,3.19-1.18,3.58-1.68v1.54ZM77.61,117.49c.14-1.15,1.13-3,3.53-3,2.23,0,3.36,1.75,3.43,3h-6.96ZM81.14,112.61c-3.34,0-5.54,2.59-5.54,5.83s2.42,5.83,5.78,5.83c2.93,0,4.61-2.18,4.61-2.18l-1.27-1.32s-1.15,1.63-3.34,1.63-3.7-1.56-3.82-3.24h8.95c.02-.26.02-.43.02-.65,0-3.58-2.3-5.9-5.4-5.9M62.2,123.99h2.02v-6.86h1.56l4.54,6.86h2.42l-4.66-7.03c.48-.07,4.1-.82,4.1-4.8,0-3-2.28-4.97-5.62-4.97h-4.37v16.8ZM66.69,115.21h-2.47v-6.1h2.47c2.26,0,3.48,1.2,3.48,3.05s-1.22,3.05-3.48,3.05"/>
    <path d="M358.96,97.4l1.7.6,2.06-5.59-1.82-.62-1.94,5.62ZM346.82,82.9v1.87h6.02l-6.36,9.22h9.65v-1.87h-6.1l6.36-9.22h-9.58ZM335.78,84.73h2.16v6.07c0,2.45,1.75,3.48,3.34,3.48.65,0,1.34-.14,2.3-.67l-.74-1.66s-.65.46-1.27.46c-1.08,0-1.61-.62-1.61-1.7v-5.98h3.46v-1.82h-3.46v-3.38h-2.02v3.38h-2.16v1.82ZM326.94,94.28c2.4,0,3.41-1.99,3.41-1.99v1.7h1.87v-11.09h-2.02v7.68s-.89,1.82-2.76,1.82c-1.49,0-2.66-.82-2.66-2.71v-6.79h-2.02v7.13c0,2.74,1.97,4.25,4.18,4.25M314.08,82.61c-1.92,0-2.93,1.15-3.26,1.63v-8.4h-2.02v18.14h2.02v-7.63s.96-1.87,2.76-1.87c1.49,0,2.66.82,2.66,2.71v6.79h2.02v-7.13c0-2.74-1.97-4.25-4.18-4.25M303.66,90.82s-1.08,1.58-3.24,1.58-3.7-1.78-3.7-3.96,1.46-3.96,3.7-3.96c1.97,0,3.05,1.34,3.05,1.34l1.37-1.22s-1.58-1.99-4.42-1.99c-3.26,0-5.71,2.59-5.71,5.83s2.45,5.83,5.71,5.83c2.93,0,4.54-2.14,4.54-2.14l-1.3-1.32ZM282.4,91.95s1.63,2.33,4.75,2.33c2.14,0,4.39-1.1,4.39-3.24,0-2.26-1.8-3.05-3.91-3.5-1.82-.38-2.69-.84-2.69-1.68,0-.72.7-1.42,2.11-1.42,1.68,0,2.78,1.22,2.78,1.22l1.32-1.37s-1.49-1.68-4.1-1.68c-2.47,0-4.08,1.58-4.08,3.19,0,2.09,1.68,3.02,4.06,3.5,1.7.34,2.52.82,2.52,1.78,0,.89-1.27,1.37-2.4,1.37-2.18,0-3.36-1.8-3.36-1.8l-1.39,1.3ZM271.7,84.73h2.16v6.07c0,2.45,1.75,3.48,3.34,3.48.65,0,1.34-.14,2.3-.67l-.74-1.66s-.65.46-1.27.46c-1.08,0-1.61-.62-1.61-1.7v-5.98h3.46v-1.82h-3.46v-3.38h-2.02v3.38h-2.16v1.82ZM265.7,93.99h2.02v-18.14h-2.02v18.14ZM252.59,87.49c.14-1.15,1.13-3,3.53-3,2.23,0,3.36,1.75,3.43,3h-6.96ZM256.12,82.61c-3.34,0-5.54,2.59-5.54,5.83s2.42,5.83,5.78,5.83c2.93,0,4.61-2.18,4.61-2.18l-1.27-1.32s-1.15,1.63-3.34,1.63-3.7-1.56-3.82-3.24h8.95c.02-.26.02-.43.02-.65,0-3.58-2.3-5.9-5.4-5.9M230.95,82.9l5.06,11.57,3.65-8.33,3.65,8.33,5.06-11.57h-2.06l-2.95,7.18-2.95-7.18h-1.37l-2.93,7.18-2.98-7.18h-2.18ZM223.94,82.61c-2.42,0-3.31,2.06-3.31,2.06,0,0-.7-2.06-3.46-2.06-2.26,0-3.07,1.92-3.07,1.92v-1.63h-1.87v11.09h2.02v-7.73s.74-1.78,2.38-1.78c1.44,0,2.38.89,2.38,2.69v6.82h2.02v-7.73s.72-1.78,2.38-1.78c1.44,0,2.38.89,2.38,2.69v6.82h2.02v-7.13c0-2.74-1.54-4.25-3.84-4.25M205.27,87.58c0,2.71-1.2,4.78-4.1,4.78s-4.1-2.06-4.1-4.78v-10.39h-2.02v10.61c0,3.82,2.28,6.48,6.12,6.48s6.12-2.66,6.12-6.48v-10.61h-2.02v10.39ZM179.49,90.49s-1.06,1.92-3.26,1.92-3.67-1.78-3.67-3.96,1.46-3.96,3.67-3.96,3.26,1.92,3.26,1.92v4.08ZM175.91,82.61c-3,0-5.38,2.57-5.38,5.83s2.38,5.83,5.38,5.83c2.66,0,3.74-1.9,3.74-1.9v1.61h1.85v-18.14h-2.02v8.42s-1.13-1.66-3.58-1.66M162.62,82.61c-2.4,0-3.41,1.85-3.41,1.85v-1.56h-1.87v11.09h2.02v-7.63s.96-1.87,2.76-1.87c1.49,0,2.66.82,2.66,2.71v6.79h2.02v-7.13c0-2.74-1.97-4.25-4.18-4.25M147.55,94.28c2.4,0,3.41-1.99,3.41-1.99v1.7h1.87v-11.09h-2.02v7.68s-.89,1.82-2.76,1.82c-1.49,0-2.66-.82-2.66-2.71v-6.79h-2.02v7.13c0,2.74,1.97,4.25,4.18,4.25M125.04,89.09h6.41v-1.92h-6.41v1.92ZM116.08,92.5c-1.25,0-2.54-.58-2.54-2.02,0-1.15,1.08-2.02,2.81-2.02s2.9.79,2.9.79v1.56s-1.2,1.68-3.17,1.68M116.44,82.61c-2.42,0-4.15,1.13-4.15,1.13l.84,1.68s1.63-.94,3.31-.94c.89,0,2.81.31,2.81,2.62v.6s-1.3-.91-3.34-.91c-2.5,0-4.39,1.54-4.39,3.7,0,2.4,2.14,3.79,4.13,3.79,2.52,0,3.77-1.9,3.77-1.9v1.61h1.85v-7.3c0-2.06-1.56-4.08-4.82-4.08M103.7,82.61c-2.42,0-3.31,2.06-3.31,2.06,0,0-.7-2.06-3.46-2.06-2.26,0-3.07,1.92-3.07,1.92v-1.63h-1.87v11.09h2.02v-7.73s.74-1.78,2.38-1.78c1.44,0,2.38.89,2.38,2.69v6.82h2.02v-7.73s.72-1.78,2.38-1.78c1.44,0,2.38.89,2.38,2.69v6.82h2.02v-7.13c0-2.74-1.54-4.25-3.84-4.25M84.74,79.35c0,.74.62,1.37,1.37,1.37s1.37-.62,1.37-1.37-.62-1.37-1.37-1.37-1.37.62-1.37,1.37M85.1,93.99h2.02v-11.09h-2.02v11.09ZM77.78,93.99h2.02v-18.14h-2.02v18.14ZM64.22,77.19h-2.02v16.8h2.02v-8.02l7.42,8.02h2.74l-7.9-8.59,7.1-8.21h-2.57l-6.79,7.9v-7.9Z"/>
    <path d="M365.68,67.4l1.7.6,2.06-5.59-1.82-.62-1.94,5.62ZM355.22,54.73h2.16v6.07c0,2.45,1.75,3.48,3.34,3.48.65,0,1.34-.14,2.3-.67l-.74-1.66s-.65.46-1.27.46c-1.08,0-1.61-.62-1.61-1.7v-5.98h3.46v-1.82h-3.46v-3.38h-2.02v3.38h-2.16v1.82ZM345.45,54.73h2.3v9.26h2.02v-9.26h2.88v-1.82h-2.88v-3.7c0-1.08.6-1.78,1.68-1.78.62,0,1.3.43,1.3.43l.74-1.66c-.96-.53-1.68-.65-2.33-.65-1.58,0-3.41,1.18-3.41,3.53v3.82h-2.3v1.82ZM336.81,62.5c-1.25,0-2.54-.58-2.54-2.02,0-1.15,1.08-2.02,2.81-2.02s2.9.79,2.9.79v1.56s-1.2,1.68-3.17,1.68M337.17,52.61c-2.42,0-4.15,1.13-4.15,1.13l.84,1.68s1.63-.94,3.31-.94c.89,0,2.81.31,2.81,2.62v.6s-1.3-.91-3.34-.91c-2.5,0-4.39,1.54-4.39,3.7,0,2.4,2.14,3.79,4.13,3.79,2.52,0,3.77-1.9,3.77-1.9v1.61h1.85v-7.3c0-2.06-1.56-4.08-4.82-4.08M324.09,52.61c-1.92,0-2.93,1.15-3.26,1.63v-8.4h-2.02v18.14h2.02v-7.63s.96-1.87,2.76-1.87c1.49,0,2.66.82,2.66,2.71v6.79h2.02v-7.13c0-2.74-1.97-4.25-4.18-4.25M313.67,60.82s-1.08,1.58-3.24,1.58-3.7-1.78-3.7-3.96,1.46-3.96,3.7-3.96c1.97,0,3.05,1.34,3.05,1.34l1.37-1.22s-1.58-1.99-4.42-1.99c-3.26,0-5.71,2.59-5.71,5.83s2.45,5.83,5.71,5.83c2.93,0,4.54-2.14,4.54-2.14l-1.3-1.32ZM292.41,61.95s1.63,2.33,4.75,2.33c2.14,0,4.39-1.1,4.39-3.24,0-2.26-1.8-3.05-3.91-3.5-1.82-.38-2.69-.84-2.69-1.68,0-.72.7-1.42,2.11-1.42,1.68,0,2.78,1.22,2.78,1.22l1.32-1.37s-1.49-1.68-4.1-1.68c-2.47,0-4.08,1.58-4.08,3.19,0,2.09,1.68,3.02,4.06,3.5,1.7.34,2.52.82,2.52,1.78,0,.89-1.27,1.37-2.4,1.37-2.18,0-3.36-1.8-3.36-1.8l-1.39,1.3ZM281.71,54.73h2.16v6.07c0,2.45,1.75,3.48,3.34,3.48.65,0,1.34-.14,2.3-.67l-.74-1.66s-.65.46-1.27.46c-1.08,0-1.61-.62-1.61-1.7v-5.98h3.46v-1.82h-3.46v-3.38h-2.02v3.38h-2.16v1.82ZM278.03,52.61c-2.11,0-3.1,1.99-3.1,1.99v-1.7h-1.87v11.09h2.02v-7.63s.79-1.87,2.54-1.87c.84,0,1.27.24,1.27.24l.74-1.82s-.7-.29-1.61-.29M265.82,49.35c0,.74.62,1.37,1.37,1.37s1.37-.62,1.37-1.37-.62-1.37-1.37-1.37-1.37.62-1.37,1.37M266.18,63.99h2.02v-11.09h-2.02v11.09ZM245.23,52.9l5.06,11.57,3.65-8.33,3.65,8.33,5.06-11.57h-2.06l-2.95,7.18-2.95-7.18h-1.37l-2.93,7.18-2.98-7.18h-2.18ZM235.15,54.73h2.16v6.07c0,2.45,1.75,3.48,3.34,3.48.65,0,1.34-.14,2.3-.67l-.74-1.66s-.65.46-1.27.46c-1.08,0-1.61-.62-1.61-1.7v-5.98h3.46v-1.82h-3.46v-3.38h-2.02v3.38h-2.16v1.82ZM223.03,61.95s1.63,2.33,4.75,2.33c2.14,0,4.39-1.1,4.39-3.24,0-2.26-1.8-3.05-3.91-3.5-1.82-.38-2.69-.84-2.69-1.68,0-.72.7-1.42,2.11-1.42,1.68,0,2.78,1.22,2.78,1.22l1.32-1.37s-1.49-1.68-4.1-1.68c-2.47,0-4.08,1.58-4.08,3.19,0,2.09,1.68,3.02,4.06,3.5,1.7.34,2.52.82,2.52,1.78,0,.89-1.27,1.37-2.4,1.37-2.18,0-3.36-1.8-3.36-1.8l-1.39,1.3ZM219.4,52.61c-2.11,0-3.1,1.99-3.1,1.99v-1.7h-1.87v11.09h2.02v-7.63s.79-1.87,2.54-1.87c.84,0,1.27.24,1.27.24l.74-1.82s-.7-.29-1.61-.29M204.98,62.41c-2.23,0-3.7-1.78-3.7-3.96s1.46-3.96,3.7-3.96,3.7,1.78,3.7,3.96-1.46,3.96-3.7,3.96M204.98,52.61c-3.26,0-5.71,2.57-5.71,5.83s2.45,5.83,5.71,5.83,5.71-2.57,5.71-5.83-2.45-5.83-5.71-5.83M189.04,49.11h7.46v-1.92h-9.48v16.8h2.02v-7.66h6.98v-1.92h-6.98v-5.3ZM171.48,60.49s-1.06,1.92-3.26,1.92-3.67-1.78-3.67-3.96,1.46-3.96,3.67-3.96,3.26,1.92,3.26,1.92v4.08ZM167.9,52.61c-3,0-5.38,2.57-5.38,5.83s2.38,5.83,5.38,5.83c2.66,0,3.74-1.9,3.74-1.9v1.61h1.85v-18.14h-2.02v8.42s-1.13-1.66-3.58-1.66M154.6,52.61c-2.4,0-3.41,1.85-3.41,1.85v-1.56h-1.87v11.09h2.02v-7.63s.96-1.87,2.76-1.87c1.49,0,2.66.82,2.66,2.71v6.79h2.02v-7.13c0-2.74-1.97-4.25-4.18-4.25M139.53,64.28c2.4,0,3.41-1.99,3.41-1.99v1.7h1.87v-11.09h-2.02v7.68s-.89,1.82-2.76,1.82c-1.49,0-2.66-.82-2.66-2.71v-6.79h-2.02v7.13c0,2.74,1.97,4.25,4.18,4.25M117.02,59.09h6.41v-1.92h-6.41v1.92ZM110.8,60.49s-1.06,1.92-3.26,1.92-3.67-1.78-3.67-3.96,1.46-3.96,3.67-3.96,3.26,1.92,3.26,1.92v4.08ZM107.23,52.61c-3,0-5.38,2.57-5.38,5.83s2.38,5.83,5.38,5.83c2.66,0,3.74-1.9,3.74-1.9v1.61h1.85v-18.14h-2.02v8.42s-1.13-1.66-3.58-1.66M93.93,52.61c-2.4,0-3.41,1.85-3.41,1.85v-1.56h-1.87v11.09h2.02v-7.63s.96-1.87,2.76-1.87c1.49,0,2.66.82,2.66,2.71v6.79h2.02v-7.13c0-2.74-1.97-4.25-4.18-4.25M78.96,62.5c-1.25,0-2.54-.58-2.54-2.02,0-1.15,1.08-2.02,2.81-2.02s2.9.79,2.9.79v1.56s-1.2,1.68-3.17,1.68M79.32,52.61c-2.42,0-4.15,1.13-4.15,1.13l.84,1.68s1.63-.94,3.31-.94c.89,0,2.81.31,2.81,2.62v.6s-1.3-.91-3.34-.91c-2.5,0-4.39,1.54-4.39,3.7,0,2.4,2.14,3.79,4.13,3.79,2.52,0,3.77-1.9,3.77-1.9v1.61h1.85v-7.3c0-2.06-1.56-4.08-4.82-4.08M62.2,63.99h9.55v-1.92h-7.54v-14.88h-2.02v16.8Z"/>
    <path d="M273.88,22.61c-2.42,0-3.31,2.06-3.31,2.06,0,0-.7-2.06-3.46-2.06-2.26,0-3.07,1.92-3.07,1.92v-1.63h-1.87v11.09h2.02v-7.73s.74-1.78,2.38-1.78c1.44,0,2.38.89,2.38,2.69v6.82h2.02v-7.73s.72-1.78,2.38-1.78c1.44,0,2.38.89,2.38,2.69v6.82h2.02v-7.13c0-2.74-1.54-4.25-3.84-4.25M252.38,34.28c2.4,0,3.41-1.99,3.41-1.99v1.7h1.87v-11.09h-2.02v7.68s-.89,1.82-2.76,1.82c-1.49,0-2.66-.82-2.66-2.71v-6.79h-2.02v7.13c0,2.74,1.97,4.25,4.18,4.25M240.95,19.35c0,.74.62,1.37,1.37,1.37s1.37-.62,1.37-1.37-.62-1.37-1.37-1.37-1.37.62-1.37,1.37M241.31,33.99h2.02v-11.09h-2.02v11.09ZM236.32,22.61c-2.11,0-3.1,1.99-3.1,1.99v-1.7h-1.87v11.09h2.02v-7.63s.79-1.87,2.54-1.87c.84,0,1.27.24,1.27.24l.74-1.82s-.7-.29-1.61-.29M218.68,27.49c.14-1.15,1.13-3,3.53-3,2.23,0,3.36,1.75,3.43,3h-6.96ZM222.21,22.61c-3.34,0-5.54,2.59-5.54,5.83s2.42,5.83,5.78,5.83c2.93,0,4.61-2.18,4.61-2.18l-1.27-1.32s-1.15,1.63-3.34,1.63-3.7-1.56-3.82-3.24h8.95c.02-.26.02-.43.02-.65,0-3.58-2.3-5.9-5.4-5.9M206.01,24.73h2.16v6.07c0,2.45,1.75,3.48,3.34,3.48.65,0,1.34-.14,2.3-.67l-.74-1.66s-.65.46-1.27.46c-1.08,0-1.61-.62-1.61-1.7v-5.98h3.46v-1.82h-3.46v-3.38h-2.02v3.38h-2.16v1.82ZM193.89,31.95s1.63,2.33,4.75,2.33c2.14,0,4.39-1.1,4.39-3.24,0-2.26-1.8-3.05-3.91-3.5-1.82-.38-2.69-.84-2.69-1.68,0-.72.7-1.42,2.11-1.42,1.68,0,2.78,1.22,2.78,1.22l1.32-1.37s-1.49-1.68-4.1-1.68c-2.47,0-4.08,1.58-4.08,3.19,0,2.09,1.68,3.02,4.06,3.5,1.7.34,2.52.82,2.52,1.78,0,.89-1.27,1.37-2.4,1.37-2.18,0-3.36-1.8-3.36-1.8l-1.39,1.3ZM187.36,19.35c0,.74.62,1.37,1.37,1.37s1.37-.62,1.37-1.37-.62-1.37-1.37-1.37-1.37.62-1.37,1.37M187.72,33.99h2.02v-11.09h-2.02v11.09ZM178.67,22.61c-2.4,0-3.41,1.85-3.41,1.85v-1.56h-1.87v11.09h2.02v-7.63s.96-1.87,2.76-1.87c1.49,0,2.66.82,2.66,2.71v6.79h2.02v-7.13c0-2.74-1.97-4.25-4.18-4.25M166.15,19.35c0,.74.62,1.37,1.37,1.37s1.37-.62,1.37-1.37-.62-1.37-1.37-1.37-1.37.62-1.37,1.37M166.51,33.99h2.02v-11.09h-2.02v11.09ZM157.8,22.61c-2.42,0-3.31,2.06-3.31,2.06,0,0-.7-2.06-3.46-2.06-2.26,0-3.07,1.92-3.07,1.92v-1.63h-1.87v11.09h2.02v-7.73s.74-1.78,2.38-1.78c1.44,0,2.38.89,2.38,2.69v6.82h2.02v-7.73s.72-1.78,2.38-1.78c1.44,0,2.38.89,2.38,2.69v6.82h2.02v-7.13c0-2.74-1.54-4.25-3.84-4.25M133,31.95s1.63,2.33,4.75,2.33c2.14,0,4.39-1.1,4.39-3.24,0-2.26-1.8-3.05-3.91-3.5-1.82-.38-2.69-.84-2.69-1.68,0-.72.7-1.42,2.11-1.42,1.68,0,2.78,1.22,2.78,1.22l1.32-1.37s-1.49-1.68-4.1-1.68c-2.47,0-4.08,1.58-4.08,3.19,0,2.09,1.68,3.02,4.06,3.5,1.7.34,2.52.82,2.52,1.78,0,.89-1.27,1.37-2.4,1.37-2.18,0-3.36-1.8-3.36-1.8l-1.39,1.3ZM121.05,27.49c.14-1.15,1.13-3,3.53-3,2.23,0,3.36,1.75,3.43,3h-6.96ZM124.58,22.61c-3.34,0-5.54,2.59-5.54,5.83s2.42,5.83,5.78,5.83c2.93,0,4.61-2.18,4.61-2.18l-1.27-1.32s-1.15,1.63-3.34,1.63-3.7-1.56-3.82-3.24h8.95c.02-.26.02-.43.02-.65,0-3.58-2.3-5.9-5.4-5.9M112.84,30.49s-1.06,1.92-3.26,1.92-3.67-1.78-3.67-3.96,1.46-3.96,3.67-3.96,3.26,1.92,3.26,1.92v4.08ZM109.27,22.61c-3,0-5.38,2.57-5.38,5.83s2.38,5.83,5.38,5.83c2.66,0,3.74-1.9,3.74-1.9v1.61h1.85V15.85h-2.02v8.42s-1.13-1.66-3.58-1.66M95.97,22.61c-2.4,0-3.41,1.85-3.41,1.85v-1.56h-1.87v11.09h2.02v-7.63s.96-1.87,2.76-1.87c1.49,0,2.66.82,2.66,2.71v6.79h2.02v-7.13c0-2.74-1.97-4.25-4.18-4.25M80.9,34.28c2.4,0,3.41-1.99,3.41-1.99v1.7h1.87v-11.09h-2.02v7.68s-.89,1.82-2.76,1.82c-1.49,0-2.66-.82-2.66-2.71v-6.79h-2.02v7.13c0,2.74,1.97,4.25,4.18,4.25M64.22,24.44v-5.33h2.74c1.9,0,3.05,1.03,3.05,2.66s-1.15,2.66-3.05,2.66h-2.74ZM67.46,32.07h-3.24v-5.76h3.24c2.4,0,3.46,1.3,3.46,2.88s-1.06,2.88-3.46,2.88M62.2,33.99h5.26c3.31,0,5.47-1.87,5.47-4.8,0-3.34-2.57-4.08-2.81-4.13.24-.05,1.9-1.01,1.9-3.29,0-2.81-1.94-4.58-5.4-4.58h-4.42v16.8Z"/>
  </g>
  <polygon class="st0" points="43.23 22.68 43.23 17.01 17.01 17.01 19.65 22.68 43.23 22.68"/>
  <polygon class="st0" points="24.94 34.01 43.23 34.01 43.23 28.35 22.29 28.35 24.94 34.01"/>
</svg>