<?xml version="1.0" encoding="UTF-8"?>
<!DOCTYPE svg PUBLIC "-//W3C//DTD SVG 1.1//EN" "http://www.w3.org/Graphics/SVG/1.1/DTD/svg11.dtd">
<!-- Creator: CorelDRAW X7 -->
<svg xmlns="http://www.w3.org/2000/svg" xml:space="preserve" width="100mm" height="100mm" version="1.1" style="shape-rendering:geometricPrecision; text-rendering:geometricPrecision; image-rendering:optimizeQuality; fill-rule:evenodd; clip-rule:evenodd"
viewBox="0 0 10000 10000"
 xmlns:xlink="http://www.w3.org/1999/xlink">
 <defs>
  <style type="text/css">
   <![CDATA[
    .str0 {stroke:white;stroke-width:20}
    .fil0 {fill:#FEFEFE}
   ]]>
  </style>
 </defs>
 <g id="Ebene_x0020_1">
  <metadata id="CorelCorpID_0Corel-Layer"/>
  <path class="fil0 str0" d="M5000 10000c2761,0 5000,-2239 5000,-5000 0,-2761 -2239,-5000 -5000,-5000 -2761,0 -5000,2239 -5000,5000 0,2761 2239,5000 5000,5000zm-1732 -5000l1732 3000 1732 -3000 0 0c171,-294 268,-636 268,-1000 0,-1105 -895,-2000 -2000,-2000 -1105,0 -2000,895 -2000,2000 0,364 97,706 268,1000l0 0zm1732 -2000c-552,0 -1000,448 -1000,1000 0,552 448,1000 1000,1000 552,0 1000,-448 1000,-1000 0,-552 -448,-1000 -1000,-1000z"/>
 </g>
</svg>
